<svg id="visual" viewBox="0 0 900 800" width="900" height="800" xmlns="http://www.w3.org/2000/svg" xmlns:xlink="http://www.w3.org/1999/xlink" version="1.1"><g stroke-width="1" stroke-linejoin="bevel"><path d="M487 415L416 475L534 483Z" fill="#f6f6f6" stroke="#f6f6f6"></path><path d="M488 590L564 517L534 483Z" fill="#95c290" stroke="#95c290"></path><path d="M614 397L535 330L487 415Z" fill="#b3d2ae" stroke="#b3d2ae"></path><path d="M416 475L488 590L534 483Z" fill="#bcd7b8" stroke="#bcd7b8"></path><path d="M432 581L488 590L416 475Z" fill="#a9cca4" stroke="#a9cca4"></path><path d="M487 415L402 368L416 475Z" fill="#d0e1cc" stroke="#d0e1cc"></path><path d="M321 412L332 495L416 475Z" fill="#c6dcc2" stroke="#c6dcc2"></path><path d="M416 475L332 495L432 581Z" fill="#9fc79a" stroke="#9fc79a"></path><path d="M614 397L487 415L534 483Z" fill="#b3d2ae" stroke="#b3d2ae"></path><path d="M487 415L535 330L402 368Z" fill="#9fc79a" stroke="#9fc79a"></path><path d="M564 517L614 397L534 483Z" fill="#9fc79a" stroke="#9fc79a"></path><path d="M488 590L604 567L564 517Z" fill="#ecf1eb" stroke="#ecf1eb"></path><path d="M564 517L676 460L614 397Z" fill="#ecf1eb" stroke="#ecf1eb"></path><path d="M402 368L321 412L416 475Z" fill="#bcd7b8" stroke="#bcd7b8"></path><path d="M604 567L676 460L564 517Z" fill="#e3ece1" stroke="#e3ece1"></path><path d="M535 330L371 300L402 368Z" fill="#e3ece1" stroke="#e3ece1"></path><path d="M402 368L371 300L321 412Z" fill="#ecf1eb" stroke="#ecf1eb"></path><path d="M676 460L684 396L614 397Z" fill="#b3d2ae" stroke="#b3d2ae"></path><path d="M614 397L597 264L535 330Z" fill="#ecf1eb" stroke="#ecf1eb"></path><path d="M432 581L505 706L488 590Z" fill="#b3d2ae" stroke="#b3d2ae"></path><path d="M488 590L505 706L604 567Z" fill="#9fc79a" stroke="#9fc79a"></path><path d="M363 714L505 706L432 581Z" fill="#b3d2ae" stroke="#b3d2ae"></path><path d="M696 269L597 264L614 397Z" fill="#d0e1cc" stroke="#d0e1cc"></path><path d="M535 330L532 232L371 300Z" fill="#c6dcc2" stroke="#c6dcc2"></path><path d="M269 629L432 581L332 495Z" fill="#bcd7b8" stroke="#bcd7b8"></path><path d="M269 629L332 672L432 581Z" fill="#d0e1cc" stroke="#d0e1cc"></path><path d="M597 264L532 232L535 330Z" fill="#f6f6f6" stroke="#f6f6f6"></path><path d="M193 532L269 629L332 495Z" fill="#9fc79a" stroke="#9fc79a"></path><path d="M223 327L232 376L321 412Z" fill="#ecf1eb" stroke="#ecf1eb"></path><path d="M321 412L193 532L332 495Z" fill="#b3d2ae" stroke="#b3d2ae"></path><path d="M332 233L321 261L371 300Z" fill="#95c290" stroke="#95c290"></path><path d="M371 300L321 261L321 412Z" fill="#bcd7b8" stroke="#bcd7b8"></path><path d="M379 800L363 714L326 800Z" fill="#95c290" stroke="#95c290"></path><path d="M332 672L363 714L432 581Z" fill="#ecf1eb" stroke="#ecf1eb"></path><path d="M505 706L639 690L604 567Z" fill="#bcd7b8" stroke="#bcd7b8"></path><path d="M604 567L727 592L676 460Z" fill="#bcd7b8" stroke="#bcd7b8"></path><path d="M703 668L727 592L604 567Z" fill="#e3ece1" stroke="#e3ece1"></path><path d="M676 460L828 512L684 396Z" fill="#c6dcc2" stroke="#c6dcc2"></path><path d="M412 170L332 233L371 300Z" fill="#d9e6d7" stroke="#d9e6d7"></path><path d="M321 261L223 327L321 412Z" fill="#e3ece1" stroke="#e3ece1"></path><path d="M232 376L193 532L321 412Z" fill="#d9e6d7" stroke="#d9e6d7"></path><path d="M204 197L223 327L321 261Z" fill="#a9cca4" stroke="#a9cca4"></path><path d="M232 376L131 485L193 532Z" fill="#bcd7b8" stroke="#bcd7b8"></path><path d="M193 532L216 607L269 629Z" fill="#95c290" stroke="#95c290"></path><path d="M326 800L363 714L332 672Z" fill="#b3d2ae" stroke="#b3d2ae"></path><path d="M696 269L629 223L597 264Z" fill="#9fc79a" stroke="#9fc79a"></path><path d="M597 264L629 223L532 232Z" fill="#f6f6f6" stroke="#f6f6f6"></path><path d="M532 232L412 170L371 300Z" fill="#ecf1eb" stroke="#ecf1eb"></path><path d="M639 690L703 668L604 567Z" fill="#d9e6d7" stroke="#d9e6d7"></path><path d="M684 396L696 269L614 397Z" fill="#a9cca4" stroke="#a9cca4"></path><path d="M779 307L696 269L684 396Z" fill="#bcd7b8" stroke="#bcd7b8"></path><path d="M462 129L412 170L532 232Z" fill="#a9cca4" stroke="#a9cca4"></path><path d="M696 269L683 236L629 223Z" fill="#a9cca4" stroke="#a9cca4"></path><path d="M636 109L462 129L532 232Z" fill="#e3ece1" stroke="#e3ece1"></path><path d="M830 729L790 565L727 592Z" fill="#bcd7b8" stroke="#bcd7b8"></path><path d="M727 592L790 565L676 460Z" fill="#e3ece1" stroke="#e3ece1"></path><path d="M379 800L533 800L505 706Z" fill="#e3ece1" stroke="#e3ece1"></path><path d="M505 706L619 800L639 690Z" fill="#9fc79a" stroke="#9fc79a"></path><path d="M639 690L731 800L703 668Z" fill="#ecf1eb" stroke="#ecf1eb"></path><path d="M326 800L332 672L182 716Z" fill="#a9cca4" stroke="#a9cca4"></path><path d="M363 714L379 800L505 706Z" fill="#c6dcc2" stroke="#c6dcc2"></path><path d="M636 109L532 232L629 223Z" fill="#a9cca4" stroke="#a9cca4"></path><path d="M297 120L204 197L332 233Z" fill="#bcd7b8" stroke="#bcd7b8"></path><path d="M193 532L91 604L216 607Z" fill="#9fc79a" stroke="#9fc79a"></path><path d="M96 422L131 485L232 376Z" fill="#e3ece1" stroke="#e3ece1"></path><path d="M828 364L779 307L684 396Z" fill="#ecf1eb" stroke="#ecf1eb"></path><path d="M696 269L824 199L683 236Z" fill="#9fc79a" stroke="#9fc79a"></path><path d="M790 565L828 512L676 460Z" fill="#ecf1eb" stroke="#ecf1eb"></path><path d="M533 800L619 800L505 706Z" fill="#95c290" stroke="#95c290"></path><path d="M703 668L830 729L727 592Z" fill="#ecf1eb" stroke="#ecf1eb"></path><path d="M182 716L332 672L269 629Z" fill="#bcd7b8" stroke="#bcd7b8"></path><path d="M182 716L269 629L216 607Z" fill="#a9cca4" stroke="#a9cca4"></path><path d="M828 512L828 364L684 396Z" fill="#bcd7b8" stroke="#bcd7b8"></path><path d="M84 677L182 716L216 607Z" fill="#e3ece1" stroke="#e3ece1"></path><path d="M74 306L96 422L223 327Z" fill="#9fc79a" stroke="#9fc79a"></path><path d="M223 327L96 422L232 376Z" fill="#e3ece1" stroke="#e3ece1"></path><path d="M131 485L91 604L193 532Z" fill="#9fc79a" stroke="#9fc79a"></path><path d="M297 120L332 233L412 170Z" fill="#e3ece1" stroke="#e3ece1"></path><path d="M332 233L204 197L321 261Z" fill="#a9cca4" stroke="#a9cca4"></path><path d="M400 70L297 120L412 170Z" fill="#b3d2ae" stroke="#b3d2ae"></path><path d="M666 115L629 223L683 236Z" fill="#9fc79a" stroke="#9fc79a"></path><path d="M666 115L636 109L629 223Z" fill="#95c290" stroke="#95c290"></path><path d="M462 129L400 70L412 170Z" fill="#d0e1cc" stroke="#d0e1cc"></path><path d="M666 115L683 236L767 88Z" fill="#95c290" stroke="#95c290"></path><path d="M824 199L696 269L779 307Z" fill="#d0e1cc" stroke="#d0e1cc"></path><path d="M0 527L91 604L131 485Z" fill="#f6f6f6" stroke="#f6f6f6"></path><path d="M461 0L400 70L462 129Z" fill="#c6dcc2" stroke="#c6dcc2"></path><path d="M619 800L731 800L639 690Z" fill="#c6dcc2" stroke="#c6dcc2"></path><path d="M900 626L900 491L828 512Z" fill="#b3d2ae" stroke="#b3d2ae"></path><path d="M900 626L828 512L790 565Z" fill="#e3ece1" stroke="#e3ece1"></path><path d="M828 512L900 437L828 364Z" fill="#ecf1eb" stroke="#ecf1eb"></path><path d="M900 491L900 437L828 512Z" fill="#c6dcc2" stroke="#c6dcc2"></path><path d="M900 266L824 199L779 307Z" fill="#e3ece1" stroke="#e3ece1"></path><path d="M204 197L74 306L223 327Z" fill="#b3d2ae" stroke="#b3d2ae"></path><path d="M96 422L0 527L131 485Z" fill="#d9e6d7" stroke="#d9e6d7"></path><path d="M770 800L830 729L703 668Z" fill="#95c290" stroke="#95c290"></path><path d="M115 800L181 800L182 716Z" fill="#b3d2ae" stroke="#b3d2ae"></path><path d="M182 716L181 800L326 800Z" fill="#9fc79a" stroke="#9fc79a"></path><path d="M731 800L770 800L703 668Z" fill="#a9cca4" stroke="#a9cca4"></path><path d="M0 594L84 677L91 604Z" fill="#d9e6d7" stroke="#d9e6d7"></path><path d="M91 604L84 677L216 607Z" fill="#f6f6f6" stroke="#f6f6f6"></path><path d="M900 266L779 307L828 364Z" fill="#d9e6d7" stroke="#d9e6d7"></path><path d="M297 120L197 120L204 197Z" fill="#e3ece1" stroke="#e3ece1"></path><path d="M204 197L126 175L74 306Z" fill="#c6dcc2" stroke="#c6dcc2"></path><path d="M204 0L197 120L297 120Z" fill="#d9e6d7" stroke="#d9e6d7"></path><path d="M830 729L900 626L790 565Z" fill="#95c290" stroke="#95c290"></path><path d="M197 120L126 175L204 197Z" fill="#ecf1eb" stroke="#ecf1eb"></path><path d="M900 437L900 266L828 364Z" fill="#ecf1eb" stroke="#ecf1eb"></path><path d="M636 109L461 0L462 129Z" fill="#d0e1cc" stroke="#d0e1cc"></path><path d="M400 70L338 0L297 120Z" fill="#b3d2ae" stroke="#b3d2ae"></path><path d="M631 0L461 0L636 109Z" fill="#bcd7b8" stroke="#bcd7b8"></path><path d="M631 0L636 109L666 115Z" fill="#d9e6d7" stroke="#d9e6d7"></path><path d="M0 413L0 527L96 422Z" fill="#f6f6f6" stroke="#f6f6f6"></path><path d="M0 268L0 413L74 306Z" fill="#a9cca4" stroke="#a9cca4"></path><path d="M74 306L0 413L96 422Z" fill="#b3d2ae" stroke="#b3d2ae"></path><path d="M900 112L767 88L824 199Z" fill="#e3ece1" stroke="#e3ece1"></path><path d="M824 199L767 88L683 236Z" fill="#ecf1eb" stroke="#ecf1eb"></path><path d="M461 0L364 0L400 70Z" fill="#d0e1cc" stroke="#d0e1cc"></path><path d="M84 677L115 800L182 716Z" fill="#d0e1cc" stroke="#d0e1cc"></path><path d="M0 716L115 800L84 677Z" fill="#d0e1cc" stroke="#d0e1cc"></path><path d="M830 729L900 711L900 626Z" fill="#d9e6d7" stroke="#d9e6d7"></path><path d="M900 800L900 711L830 729Z" fill="#c6dcc2" stroke="#c6dcc2"></path><path d="M0 527L0 594L91 604Z" fill="#bcd7b8" stroke="#bcd7b8"></path><path d="M197 120L132 99L126 175Z" fill="#b3d2ae" stroke="#b3d2ae"></path><path d="M364 0L338 0L400 70Z" fill="#d9e6d7" stroke="#d9e6d7"></path><path d="M712 0L631 0L666 115Z" fill="#e3ece1" stroke="#e3ece1"></path><path d="M900 266L900 195L824 199Z" fill="#f6f6f6" stroke="#f6f6f6"></path><path d="M204 0L132 99L197 120Z" fill="#a9cca4" stroke="#a9cca4"></path><path d="M126 175L0 268L74 306Z" fill="#d9e6d7" stroke="#d9e6d7"></path><path d="M0 186L0 268L126 175Z" fill="#f6f6f6" stroke="#f6f6f6"></path><path d="M776 0L712 0L767 88Z" fill="#d9e6d7" stroke="#d9e6d7"></path><path d="M767 88L712 0L666 115Z" fill="#f6f6f6" stroke="#f6f6f6"></path><path d="M0 594L0 716L84 677Z" fill="#b3d2ae" stroke="#b3d2ae"></path><path d="M770 800L900 800L830 729Z" fill="#e3ece1" stroke="#e3ece1"></path><path d="M338 0L204 0L297 120Z" fill="#b3d2ae" stroke="#b3d2ae"></path><path d="M132 99L0 186L126 175Z" fill="#95c290" stroke="#95c290"></path><path d="M0 65L0 186L132 99Z" fill="#e3ece1" stroke="#e3ece1"></path><path d="M900 195L900 112L824 199Z" fill="#bcd7b8" stroke="#bcd7b8"></path><path d="M900 0L776 0L767 88Z" fill="#d9e6d7" stroke="#d9e6d7"></path><path d="M0 716L0 800L115 800Z" fill="#d9e6d7" stroke="#d9e6d7"></path><path d="M204 0L112 0L132 99Z" fill="#ecf1eb" stroke="#ecf1eb"></path><path d="M112 0L0 65L132 99Z" fill="#b3d2ae" stroke="#b3d2ae"></path><path d="M900 112L900 0L767 88Z" fill="#bcd7b8" stroke="#bcd7b8"></path><path d="M112 0L0 0L0 65Z" fill="#c6dcc2" stroke="#c6dcc2"></path></g></svg>